<mxfile host="app.diagrams.net" modified="2021-08-17T12:33:19.567Z" agent="5.0 (Macintosh; Intel Mac OS X 10_15_7) AppleWebKit/537.36 (KHTML, like Gecko) Chrome/91.0.4472.114 Safari/537.36" etag="R9cwYQMGCqRPLmAJBMbC" version="14.9.6" type="github">
  <diagram id="prtHgNgQTEPvFCAcTncT" name="Page-1">
    <mxGraphModel dx="786" dy="435" grid="1" gridSize="10" guides="1" tooltips="1" connect="1" arrows="1" fold="1" page="1" pageScale="1" pageWidth="827" pageHeight="1169" math="0" shadow="0">
      <root>
        <mxCell id="0" />
        <mxCell id="1" parent="0" />
        <mxCell id="ksjrsjDoHv7oubmzRovw-1" value="Agent Consle" style="rounded=1;whiteSpace=wrap;html=1;" vertex="1" parent="1">
          <mxGeometry x="30" y="70" width="120" height="60" as="geometry" />
        </mxCell>
        <mxCell id="ksjrsjDoHv7oubmzRovw-2" value="Payment-account-sync API" style="rounded=1;whiteSpace=wrap;html=1;" vertex="1" parent="1">
          <mxGeometry x="210" y="70" width="120" height="60" as="geometry" />
        </mxCell>
        <mxCell id="ksjrsjDoHv7oubmzRovw-4" value="Customer Account API" style="rounded=1;whiteSpace=wrap;html=1;" vertex="1" parent="1">
          <mxGeometry x="390" y="20" width="120" height="60" as="geometry" />
        </mxCell>
        <mxCell id="ksjrsjDoHv7oubmzRovw-5" value="Individual API" style="rounded=1;whiteSpace=wrap;html=1;" vertex="1" parent="1">
          <mxGeometry x="530" y="20" width="120" height="60" as="geometry" />
        </mxCell>
        <mxCell id="ksjrsjDoHv7oubmzRovw-6" value="Payment Agreement API" style="rounded=1;whiteSpace=wrap;html=1;" vertex="1" parent="1">
          <mxGeometry x="530" y="110" width="120" height="60" as="geometry" />
        </mxCell>
        <mxCell id="ksjrsjDoHv7oubmzRovw-7" value="Payment Vault" style="rounded=1;whiteSpace=wrap;html=1;" vertex="1" parent="1">
          <mxGeometry x="390" y="110" width="120" height="60" as="geometry" />
        </mxCell>
        <mxCell id="ksjrsjDoHv7oubmzRovw-8" value="Payment Agreement Update" style="rounded=1;whiteSpace=wrap;html=1;" vertex="1" parent="1">
          <mxGeometry x="400" y="210" width="120" height="60" as="geometry" />
        </mxCell>
        <mxCell id="ksjrsjDoHv7oubmzRovw-9" value="Publish Events" style="rounded=1;whiteSpace=wrap;html=1;" vertex="1" parent="1">
          <mxGeometry x="530" y="210" width="120" height="60" as="geometry" />
        </mxCell>
      </root>
    </mxGraphModel>
  </diagram>
</mxfile>
